<?xml version="1.0" encoding="UTF-8"?>
<svg id="Calque_1" data-name="Calque 1" xmlns="http://www.w3.org/2000/svg" viewBox="0 0 44.01 38.48">
  <defs>
    <style>
      .cls-1 {
        fill: #575651;
        stroke-width: 0px;
      }
    </style>
  </defs>
  <path class="cls-1" d="m21.39,11.27c-4.99.24-9.02,4.34-9.17,9.33-.09,3.03,1.24,5.91,3.6,7.81v5.02c0,2.78,2.26,5.04,5.04,5.04h2c2.78,0,5.04-2.26,5.04-5.04v-5.02c2.27-1.83,3.6-4.59,3.6-7.51,0-2.66-1.06-5.14-2.99-6.98-1.93-1.84-4.46-2.78-7.12-2.65Zm4.93,15.84l-.42.3v6.03c0,1.68-1.36,3.04-3.04,3.04h-2c-1.68,0-3.04-1.36-3.04-3.04v-6.03l-.42-.3c-2.07-1.49-3.26-3.9-3.18-6.44.12-3.96,3.31-7.21,7.27-7.39.13,0,.25,0,.38,0,1.98,0,3.84.74,5.27,2.11,1.53,1.46,2.37,3.42,2.37,5.53,0,2.44-1.19,4.76-3.19,6.2Z"/>
  <path class="cls-1" d="m43.51,20.62h-7.33c-.28,0-.5.22-.5.5s.22.5.5.5h7.33c.28,0,.5-.22.5-.5s-.22-.5-.5-.5Z"/>
  <path class="cls-1" d="m7.83,20.62H.5c-.28,0-.5.22-.5.5s.22.5.5.5h7.33c.28,0,.5-.22.5-.5s-.22-.5-.5-.5Z"/>
  <path class="cls-1" d="m22.01,8.33c.28,0,.5-.22.5-.5V.5c0-.28-.22-.5-.5-.5s-.5.22-.5.5v7.33c0,.28.22.5.5.5Z"/>
  <path class="cls-1" d="m37.57,5.56c-.2-.2-.51-.2-.71,0l-5.18,5.18c-.2.2-.2.51,0,.71.1.1.23.15.35.15s.26-.05.35-.15l5.18-5.18c.2-.2.2-.51,0-.71Z"/>
  <path class="cls-1" d="m12.34,10.74l-5.18-5.18c-.2-.2-.51-.2-.71,0s-.2.51,0,.71l5.18,5.18c.1.1.23.15.35.15s.26-.05.35-.15c.2-.2.2-.51,0-.71Z"/>
  <path class="cls-1" d="m21.76,14.93c-3.31,0-5.99,2.68-5.99,5.99,0,2.41,1.42,4.47,3.47,5.42v5.63c0,1.44,1.18,2.61,2.61,2.61s2.61-1.18,2.61-2.61v-5.72c1.94-.99,3.27-3,3.27-5.33,0-3.31-2.68-5.99-5.99-5.99Z"/>
</svg>