<?xml version="1.0" encoding="UTF-8"?>
<svg id="Calque_1" data-name="Calque 1" xmlns="http://www.w3.org/2000/svg" viewBox="0 0 290.09 162.98">
  <defs>
    <style>
      .cls-1 {
        fill: #cad5c6;
        stroke: #2a4897;
        stroke-linecap: round;
        stroke-linejoin: round;
        stroke-width: 2px;
      }

      .cls-2 {
        fill: #2a4898;
        stroke-width: 0px;
      }
    </style>
  </defs>
  <path class="cls-1" d="m145.26,1H1v160.98h288.09V1h-143.83Zm140.65,102.12l-4.36,4.33v47.03H8.54v-47.03l-4.36-4.33v-38.79l4.36-4.33V8.5h113.07l4.41-4.38h38.04l4.41,4.38h113.07v51.5l4.36,4.33v38.79Z"/>
  <g>
    <g>
      <polygon class="cls-2" points="165.84 4.22 169.63 8.01 181.69 8.01 177.8 4.12 165.84 4.22"/>
      <polygon class="cls-2" points="179.1 4.22 182.89 8.01 189.27 8.01 185.38 4.12 179.1 4.22"/>
      <polygon class="cls-2" points="186.68 4.22 190.47 8.01 193.46 8.01 189.57 4.12 186.68 4.22"/>
    </g>
    <g>
      <g>
        <polygon class="cls-2" points="285.9 63.26 282.11 59.47 282.11 47.41 286 51.3 285.9 63.26"/>
        <polygon class="cls-2" points="285.9 50 282.11 46.21 282.11 39.83 286 43.72 285.9 50"/>
        <polygon class="cls-2" points="285.9 42.42 282.11 38.63 282.11 35.64 286 39.53 285.9 42.42"/>
      </g>
      <g>
        <polygon class="cls-2" points="285.9 104.41 282.11 108.2 282.11 120.26 286 116.37 285.9 104.41"/>
        <polygon class="cls-2" points="285.9 117.67 282.11 121.46 282.11 127.84 286 123.95 285.9 117.67"/>
        <polygon class="cls-2" points="285.9 125.25 282.11 129.04 282.11 132.03 286 128.14 285.9 125.25"/>
      </g>
    </g>
    <g>
      <g>
        <polygon class="cls-2" points="4.29 105.01 8.08 108.8 8.08 120.86 4.19 116.97 4.29 105.01"/>
        <polygon class="cls-2" points="4.29 118.27 8.08 122.06 8.08 128.44 4.19 124.55 4.29 118.27"/>
        <polygon class="cls-2" points="4.29 125.85 8.08 129.64 8.08 132.63 4.19 128.74 4.29 125.85"/>
      </g>
      <g>
        <polygon class="cls-2" points="3.99 62.96 7.78 59.17 7.78 47.11 3.89 51 3.99 62.96"/>
        <polygon class="cls-2" points="3.99 49.7 7.78 45.91 7.78 39.53 3.89 43.42 3.99 49.7"/>
        <polygon class="cls-2" points="3.99 42.12 7.78 38.33 7.78 35.34 3.89 39.23 3.99 42.12"/>
      </g>
    </g>
    <g>
      <polygon class="cls-2" points="124.64 4.22 120.85 8.01 108.79 8.01 112.68 4.12 124.64 4.22"/>
      <polygon class="cls-2" points="111.38 4.22 107.59 8.01 101.21 8.01 105.1 4.12 111.38 4.22"/>
      <polygon class="cls-2" points="103.8 4.22 100.01 8.01 97.02 8.01 100.91 4.12 103.8 4.22"/>
    </g>
  </g>
</svg>