<?xml version="1.0" encoding="UTF-8"?>
<svg id="Calque_1" data-name="Calque 1" xmlns="http://www.w3.org/2000/svg" viewBox="0 0 57.13 57.13">
  <defs>
    <style>
      .cls-1 {
        fill: #81cef3;
      }

      .cls-1, .cls-2 {
        stroke-width: 0px;
      }

      .cls-2 {
        fill: #b4b4ab;
      }

      .cls-3 {
        fill: #575651;
        font-family: Montserrat-Bold, Montserrat;
        font-size: 8px;
        font-weight: 700;
      }

      .cls-4 {
        fill: none;
        stroke: #eee;
        stroke-miterlimit: 10;
      }
    </style>
  </defs>
  <g>
    <circle class="cls-4" cx="28.56" cy="28.56" r="28.06"/>
    <g>
      <path class="cls-1" d="m52.98,29.94h-12.78c-.06,5.97-4.54,10.88-10.33,11.61v11.73c12.47-.81,22.42-10.84,23.11-23.34,0,0,0,0,0,0Z"/>
      <path class="cls-1" d="m39.91,27.19h13.07s0,0,0,0c-.69-12.5-10.64-22.53-23.11-23.34v14.23c4.95.63,8.95,4.31,10.04,9.11Z"/>
      <path class="cls-2" d="m27.12,3.82C14.41,4.39,4.2,14.52,3.51,27.19h0s13.32,0,13.32,0c1.11-4.88,5.22-8.61,10.29-9.14V3.82Z"/>
      <path class="cls-2" d="m16.53,29.94H3.51s0,0,0,0c.69,12.67,10.91,22.8,23.61,23.37v-11.73c-5.91-.62-10.52-5.59-10.58-11.64Z"/>
    </g>
  </g>
  <text class="cls-3" transform="translate(22.63 32.01)"><tspan x="0" y="0">ES</tspan></text>
</svg>