<?xml version="1.0" encoding="UTF-8"?>
<svg id="Calque_2" data-name="Calque 2" xmlns="http://www.w3.org/2000/svg" viewBox="0 0 17.17 11.47">
  <defs>
    <style>
      .cls-1 {
        fill: #575751;
      }

      .cls-2 {
        fill: #b5b5ac;
      }
    </style>
  </defs>
  <g id="Calque_1-2" data-name="Calque 1">
    <g>
      <polygon class="cls-2" points="1.12 5.82 2.38 5.82 2.38 7.24 3.76 7.24 3.76 8.65 5.66 8.65 5.66 10.06 7.45 10.06 7.45 11.47 8.53 11.47 9.64 11.47 9.64 10.06 11.42 10.06 11.42 8.65 13.32 8.65 13.32 7.24 14.7 7.24 14.7 5.82 15.97 5.82 15.97 4.41 17.17 4.41 17.17 3 15.86 3 15.86 1.59 14.56 1.59 14.56 .18 10.93 .18 10.93 1.59 9.64 1.59 9.64 3 8.53 3 7.34 3 7.34 1.59 6.05 1.59 6.05 .18 2.41 .18 2.41 1.59 1.12 1.59 1.12 3 0 3 0 4.41 1.12 4.41 1.12 5.82"/>
      <polygon class="cls-1" points="1.12 5.65 2.38 5.65 2.38 7.06 3.76 7.06 3.76 8.47 5.66 8.47 5.66 9.89 7.45 9.89 7.45 11.3 8.53 11.3 9.64 11.3 9.64 9.89 11.42 9.89 11.42 8.47 13.32 8.47 13.32 7.06 14.7 7.06 14.7 5.65 15.97 5.65 15.97 4.24 17.17 4.24 17.17 2.82 15.86 2.82 15.86 1.41 14.56 1.41 14.56 0 10.93 0 10.93 1.41 9.64 1.41 9.64 2.82 8.53 2.82 7.34 2.82 7.34 1.41 6.05 1.41 6.05 0 2.41 0 2.41 1.41 1.12 1.41 1.12 2.82 0 2.82 0 4.24 1.12 4.24 1.12 5.65"/>
    </g>
  </g>
</svg>