<?xml version="1.0" encoding="UTF-8"?>
<svg id="Calque_1" data-name="Calque 1" xmlns="http://www.w3.org/2000/svg" viewBox="0 0 23.4 23.4">
  <defs>
    <style>
      .cls-1 {
        fill: #575651;
        stroke-width: 0px;
      }
    </style>
  </defs>
  <path class="cls-1" d="m13.74,3.76l5.89,5.89-13.74,13.74H0v-5.89L13.74,3.76ZM5.07,21.43l2.37-2.37-3.11-3.11-2.37,2.37v1.15h1.96v1.96h1.15ZM14.05,7.38c.23-.23.24-.46.02-.67-.22-.22-.44-.21-.67.02l-7.16,7.16c-.23.23-.24.46-.02.67.22.22.44.21.67-.02l7.16-7.16h0Zm8.77-.92l-1.88,1.88-5.89-5.89,1.88-1.88c.38-.38.85-.57,1.39-.57s1.01.19,1.39.57l3.11,3.11c.38.38.57.85.57,1.39s-.19,1.01-.57,1.39Z"/>
</svg>