<?xml version="1.0" encoding="UTF-8"?>
<svg id="Calque_1" data-name="Calque 1" xmlns="http://www.w3.org/2000/svg" viewBox="0 0 22.31 22.33">
  <defs>
    <style>
      .cls-1 {
        fill: #575651;
        stroke-width: 0px;
      }
    </style>
  </defs>
  <path class="cls-1" d="m8.8,12.89c.32.63.77,1.17,1.33,1.62.56.45,1.19.76,1.88.95v.88c.05,1.77-.49,3.21-1.6,4.32-1.11,1.11-2.56,1.67-4.34,1.67-1.02,0-1.93-.19-2.72-.58-.79-.39-1.42-.92-1.9-1.59-.48-.67-.84-1.43-1.08-2.28-.24-.85-.36-1.76-.36-2.74.06.04.23.17.51.37.28.21.54.39.77.55.23.16.48.31.74.45.26.14.45.21.57.21.34,0,.57-.15.69-.46.21-.55.45-1.02.72-1.4.27-.39.56-.7.87-.95.31-.24.67-.44,1.1-.59.42-.15.85-.26,1.28-.32.43-.06.95-.11,1.56-.13ZM18.51.67c.49-.45,1.03-.67,1.62-.67s1.09.19,1.53.58c.44.39.65.87.65,1.45,0,.52-.19,1.15-.56,1.88-2.76,5.23-4.69,8.35-5.79,9.37-.81.76-1.71,1.13-2.72,1.13s-1.95-.38-2.7-1.15c-.75-.77-1.13-1.68-1.13-2.74s.38-1.94,1.15-2.64L18.51.67h0Z"/>
</svg>